<?xml version="1.0" encoding="utf-8"?>
<!-- Generator: Adobe Illustrator 18.1.1, SVG Export Plug-In . SVG Version: 6.00 Build 0)  -->
<svg version="1.1" xmlns="http://www.w3.org/2000/svg" xmlns:xlink="http://www.w3.org/1999/xlink" x="0px" y="0px"
	 viewBox="0 0 128 128" enable-background="new 0 0 128 128" xml:space="preserve">
<g id="Angular">
	<g id="XMLID_1463_">
		<g id="Color_Base_7_">
			<g id="XMLID_1525_">
				<circle id="XMLID_1538_" fill-rule="evenodd" clip-rule="evenodd" fill="#F14330" cx="64" cy="64" r="64"/>
			</g>
		</g>
		<g id="Border_7_" opacity="0.102">
			<g id="XMLID_1596_">
				<path id="XMLID_1597_" fill-rule="evenodd" clip-rule="evenodd" d="M64,0C28.654,0,0,28.654,0,64c0,35.346,28.654,64,64,64
					s64-28.654,64-64C128,28.654,99.346,0,64,0z M64,122C31.968,122,6,96.032,6,64C6,31.967,31.968,6,64,6s58,25.968,58,58
					C122,96.032,96.032,122,64,122z"/>
			</g>
		</g>
		<g id="Corner_Hightlight_7_" opacity="0.2588">
			<g id="XMLID_1513_">
				<path id="XMLID_1524_" fill-rule="evenodd" clip-rule="evenodd" fill="#FFFFFF" d="M63.964,127.999
					c0.012,0,0.024,0.001,0.036,0.001c2.503,0,4.968-0.159,7.397-0.439c10.229-14.739,26.485-24.966,45.207-27.122
					c1.412-2.035,2.713-4.153,3.886-6.35C96.468,95.275,75.638,108.572,63.964,127.999z"/>
			</g>
		</g>
		<g id="Large_Shadow_7_" opacity="0.051">
			<g id="XMLID_1515_">
				<path id="XMLID_1523_" fill-rule="evenodd" clip-rule="evenodd" d="M117.04,28.175C70.481,30.522,30.1,56.286,7.426,93.924
					C18.168,114.189,39.466,128,64,128c35.346,0,64-28.654,64-64C128,50.727,123.959,38.398,117.04,28.175z"/>
			</g>
		</g>
		<g id="Shadow_7_">
			<g id="XMLID_1517_">
				<path id="XMLID_1522_" fill-rule="evenodd" clip-rule="evenodd" fill="#FFCD34" d="M71.397,127.561
					c18.722-2.156,34.978-12.384,45.207-27.122C97.882,102.595,81.626,112.823,71.397,127.561z"/>
			</g>
		</g>
		<g id="Highlight_7_" opacity="0.149">
			<g id="XMLID_1519_">
				<path id="XMLID_1520_" fill-rule="evenodd" clip-rule="evenodd" fill="#FFFFFF" d="M71.397,127.561
					c3.033-0.349,6.003-0.901,8.891-1.659c7.892-9.047,18.541-15.617,30.643-18.405c2.052-2.213,3.947-4.571,5.673-7.058
					C97.882,102.595,81.626,112.823,71.397,127.561z"/>
			</g>
		</g>
		<g id="Symbol_Shadow_7_" opacity="0.051">
			<g id="XMLID_1698_">
				<path id="XMLID_1702_" fill-rule="evenodd" clip-rule="evenodd" d="M43,82h7.437l4.375-10h18.375l4.375,10H85L64,37L43,82z
					 M57.437,66L64,51l6.562,15H57.437z M64,31L30,42.833l5.461,43.998L64,103l28.539-16.17L98,42.833L64,31z M88.817,84.342
					L64,98.403L39.182,84.342l-4.815-38.794L64,35.235l29.633,10.313L88.817,84.342z"/>
			</g>
		</g>
		<g id="Symbol_7_">
			<g id="XMLID_1717_">
				<path id="XMLID_1718_" fill-rule="evenodd" clip-rule="evenodd" fill="#FFFFFF" d="M43,80h7.437l4.375-10h18.375l4.375,10H85
					L64,35L43,80z M57.437,64L64,49l6.562,15H57.437z M64,29L30,40.832l5.461,43.998L64,101l28.539-16.17L98,40.832L64,29z
					 M88.817,82.342L64,96.403L39.182,82.342l-4.815-38.794L64,33.235l29.633,10.313L88.817,82.342z"/>
			</g>
		</g>
	</g>
</g>
</svg>
