<?xml version="1.0" encoding="utf-8"?>
<!-- Generator: Adobe Illustrator 18.1.1, SVG Export Plug-In . SVG Version: 6.00 Build 0)  -->
<svg version="1.1" xmlns="http://www.w3.org/2000/svg" xmlns:xlink="http://www.w3.org/1999/xlink" x="0px" y="0px"
	 viewBox="0 0 128 128" enable-background="new 0 0 128 128" xml:space="preserve">
<g id="Github">
	<g id="XMLID_1147_">
		<g id="Color_Base_12_">
			<g id="XMLID_1240_">
				<circle id="XMLID_1241_" fill-rule="evenodd" clip-rule="evenodd" fill="#5C73CC" cx="64" cy="64" r="64"/>
			</g>
		</g>
		<g id="Border_12_" opacity="0.102">
			<g id="XMLID_1320_">
				<path id="XMLID_1324_" fill-rule="evenodd" clip-rule="evenodd" d="M64,0C28.654,0,0,28.654,0,64s28.654,64,64,64
					s64-28.654,64-64S99.346,0,64,0z M64,122C31.968,122,6,96.032,6,64C6,31.967,31.968,6,64,6s58,25.967,58,58
					C122,96.032,96.032,122,64,122z"/>
			</g>
		</g>
		<g id="Corner_Hightlight_12_" opacity="0.2588">
			<g id="XMLID_1231_">
				<path id="XMLID_1238_" fill-rule="evenodd" clip-rule="evenodd" fill="#FFFFFF" d="M63.964,127.999
					c0.012,0,0.024,0.001,0.036,0.001c2.503,0,4.968-0.159,7.397-0.439c10.229-14.739,26.485-24.967,45.207-27.122
					c1.412-2.035,2.713-4.153,3.886-6.35C96.468,95.275,75.638,108.572,63.964,127.999z"/>
			</g>
		</g>
		<g id="Large_Shadow_12_" opacity="0.102">
			<g id="XMLID_1232_">
				<path id="XMLID_1237_" fill-rule="evenodd" clip-rule="evenodd" d="M117.04,28.175C70.481,30.522,30.1,56.286,7.426,93.924
					C18.168,114.189,39.466,128,64,128c35.346,0,64-28.654,64-64C128,50.727,123.959,38.398,117.04,28.175z"/>
			</g>
		</g>
		<g id="Shadow_12_">
			<g id="XMLID_1233_">
				<path id="XMLID_1235_" fill-rule="evenodd" clip-rule="evenodd" fill="#FF8D1B" d="M71.397,127.561
					c18.722-2.156,34.978-12.384,45.207-27.122C97.882,102.595,81.626,112.823,71.397,127.561z"/>
			</g>
		</g>
		<g id="Highlight_12_" opacity="0.149">
			<g id="XMLID_1234_">
				<path id="XMLID_1239_" fill-rule="evenodd" clip-rule="evenodd" fill="#FFFFFF" d="M71.397,127.561
					c3.033-0.349,6.003-0.901,8.891-1.659c7.892-9.047,18.541-15.617,30.643-18.405c2.052-2.213,3.947-4.572,5.673-7.058
					C97.882,102.595,81.626,112.823,71.397,127.561z"/>
			</g>
		</g>
		<g id="Symbol_Shadow_12_" opacity="0.051">
			<g id="XMLID_1511_">
				<path id="XMLID_1518_" fill-rule="evenodd" clip-rule="evenodd" d="M64,26.997c-22.088,0-39.999,17.906-39.999,39.996
					c0,17.671,11.461,32.663,27.354,37.952c1.999,0.37,2.733-0.868,2.733-1.924c0-0.953-0.037-4.104-0.054-7.446
					c-11.128,2.42-13.476-4.719-13.476-4.719c-1.82-4.623-4.441-5.852-4.441-5.852c-3.629-2.482,0.273-2.431,0.273-2.431
					c4.016,0.282,6.131,4.122,6.131,4.122c3.567,6.114,9.357,4.346,11.64,3.325c0.359-2.585,1.395-4.35,2.54-5.348
					c-8.884-1.011-18.224-4.441-18.224-19.766c0-4.366,1.563-7.934,4.122-10.735c-0.415-1.008-1.785-5.075,0.388-10.585
					c0,0,3.359-1.074,11.002,4.1C57.179,46.797,60.6,46.353,64,46.338c3.399,0.016,6.824,0.46,10.02,1.346
					c7.635-5.175,10.989-4.1,10.989-4.1c2.177,5.509,0.808,9.577,0.393,10.585c2.565,2.801,4.116,6.369,4.116,10.735
					c0,15.362-9.357,18.744-18.264,19.734c1.435,1.241,2.713,3.675,2.713,7.406c0,5.351-0.046,9.659-0.046,10.976
					c0,1.065,0.72,2.312,2.747,1.919c15.885-5.295,27.331-20.281,27.331-37.947C103.998,44.903,86.09,26.997,64,26.997z
					 M38.106,83.943c-0.094,0.199,0.068,0.47,0.359,0.601c0.285,0.136,0.598,0.077,0.686-0.122c0.1-0.199-0.065-0.473-0.356-0.604
					C38.505,83.682,38.192,83.739,38.106,83.943z M39.837,85.213c-0.193,0.179-0.145,0.552,0.117,0.831
					c0.253,0.279,0.626,0.362,0.817,0.185c0.199-0.179,0.148-0.549-0.114-0.831C40.395,85.119,40.033,85.036,39.837,85.213z
					 M41.46,87.234c-0.251,0.171-0.251,0.598-0.006,0.953c0.248,0.356,0.649,0.515,0.894,0.345c0.25-0.174,0.25-0.601,0.006-0.962
					C42.103,87.217,41.708,87.063,41.46,87.234z M43.253,89.583c-0.219,0.242-0.122,0.7,0.228,1.022
					c0.341,0.33,0.809,0.395,1.028,0.153c0.233-0.239,0.128-0.7-0.219-1.022C43.945,89.409,43.475,89.341,43.253,89.583z
					 M45.832,91.552c-0.091,0.316,0.204,0.683,0.657,0.82c0.453,0.133,0.902-0.009,0.999-0.322c0.094-0.319-0.203-0.683-0.655-0.819
					C46.378,91.089,45.926,91.237,45.832,91.552z M49.043,92.318c0.005,0.325,0.393,0.592,0.871,0.581
					c0.475-0.006,0.86-0.279,0.849-0.609c0-0.327-0.39-0.592-0.866-0.583C49.419,91.715,49.043,91.985,49.043,92.318z
					 M52.852,91.333c-0.464,0.085-0.8,0.416-0.743,0.746c0.059,0.319,0.489,0.518,0.953,0.433c0.472-0.088,0.803-0.418,0.746-0.74
					C53.748,91.444,53.325,91.251,52.852,91.333z"/>
			</g>
		</g>
		<g id="Symbol_12_">
			<g id="XMLID_2048_">
				<path id="XMLID_2049_" fill-rule="evenodd" clip-rule="evenodd" fill="#FFFFFF" d="M64,24.997
					c-22.088,0-39.999,17.906-39.999,39.996c0,17.671,11.461,32.663,27.354,37.952c1.999,0.37,2.733-0.868,2.733-1.924
					c0-0.953-0.037-4.104-0.054-7.446c-11.128,2.42-13.476-4.719-13.476-4.719c-1.82-4.623-4.441-5.852-4.441-5.852
					c-3.629-2.482,0.273-2.431,0.273-2.431c4.016,0.282,6.131,4.122,6.131,4.122c3.567,6.114,9.357,4.346,11.64,3.324
					c0.359-2.585,1.395-4.35,2.54-5.348c-8.884-1.011-18.224-4.441-18.224-19.766c0-4.367,1.563-7.935,4.122-10.735
					c-0.415-1.008-1.785-5.075,0.388-10.585c0,0,3.359-1.074,11.002,4.1C57.179,44.797,60.6,44.353,64,44.338
					c3.399,0.016,6.824,0.46,10.02,1.346c7.635-5.175,10.989-4.1,10.989-4.1c2.177,5.509,0.808,9.577,0.393,10.585
					c2.565,2.801,4.116,6.369,4.116,10.735c0,15.362-9.357,18.744-18.264,19.734c1.435,1.241,2.713,3.675,2.713,7.406
					c0,5.352-0.046,9.659-0.046,10.976c0,1.065,0.72,2.312,2.747,1.919c15.885-5.295,27.331-20.281,27.331-37.947
					C103.998,42.903,86.09,24.997,64,24.997z M38.106,81.943c-0.094,0.199,0.068,0.47,0.359,0.601
					c0.285,0.137,0.598,0.077,0.686-0.122c0.1-0.199-0.065-0.473-0.356-0.604C38.505,81.682,38.192,81.739,38.106,81.943z
					 M39.837,83.213c-0.193,0.179-0.145,0.552,0.117,0.831c0.253,0.279,0.626,0.362,0.817,0.185
					c0.199-0.179,0.148-0.549-0.114-0.831C40.395,83.119,40.033,83.036,39.837,83.213z M41.46,85.234
					c-0.251,0.171-0.251,0.598-0.006,0.953c0.248,0.356,0.649,0.516,0.894,0.345c0.25-0.174,0.25-0.601,0.006-0.962
					C42.103,85.217,41.708,85.064,41.46,85.234z M43.253,87.583c-0.219,0.242-0.122,0.7,0.228,1.022
					c0.341,0.33,0.809,0.395,1.028,0.153c0.233-0.239,0.128-0.7-0.219-1.022C43.945,87.409,43.475,87.341,43.253,87.583z
					 M45.832,89.552c-0.091,0.316,0.204,0.683,0.657,0.82c0.453,0.133,0.902-0.009,0.999-0.322c0.094-0.319-0.203-0.683-0.655-0.819
					C46.378,89.088,45.926,89.237,45.832,89.552z M49.043,90.318c0.005,0.325,0.393,0.592,0.871,0.581
					c0.475-0.006,0.86-0.279,0.849-0.609c0-0.327-0.39-0.593-0.866-0.583C49.419,89.715,49.043,89.985,49.043,90.318z
					 M52.852,89.333c-0.464,0.085-0.8,0.416-0.743,0.746c0.059,0.319,0.489,0.518,0.953,0.433c0.472-0.088,0.803-0.418,0.746-0.74
					C53.748,89.444,53.325,89.251,52.852,89.333z"/>
			</g>
		</g>
	</g>
</g>
</svg>
