<?xml version="1.0" encoding="utf-8"?>
<!-- Generator: Adobe Illustrator 18.1.1, SVG Export Plug-In . SVG Version: 6.00 Build 0)  -->
<svg version="1.1" xmlns="http://www.w3.org/2000/svg" xmlns:xlink="http://www.w3.org/1999/xlink" x="0px" y="0px"
	 viewBox="0 0 128 128" enable-background="new 0 0 128 128" xml:space="preserve">
<g id="Javascript">
	<g id="XMLID_223_">
		<g id="Color_Base_2_">
			<g id="XMLID_279_">
				<circle id="XMLID_280_" fill-rule="evenodd" clip-rule="evenodd" fill="#E783DF" cx="64" cy="64" r="64"/>
			</g>
		</g>
		<g id="Border_2_" opacity="0.102">
			<g id="XMLID_353_">
				<path id="XMLID_355_" fill-rule="evenodd" clip-rule="evenodd" d="M64,0C28.654,0,0,28.654,0,64s28.654,64,64,64
					s64-28.654,64-64S99.346,0,64,0z M64,122C31.968,122,6,96.032,6,64C6,31.967,31.968,6,64,6s58,25.967,58,58
					C122,96.032,96.032,122,64,122z"/>
			</g>
		</g>
		<g id="Corner_Hightlight_2_" opacity="0.2588">
			<g id="XMLID_267_">
				<path id="XMLID_268_" fill-rule="evenodd" clip-rule="evenodd" fill="#FFFFFF" d="M63.964,127.999
					c0.012,0,0.024,0.001,0.036,0.001c2.503,0,4.968-0.159,7.397-0.439c10.229-14.739,26.485-24.966,45.207-27.122
					c1.412-2.035,2.713-4.152,3.886-6.35C96.468,95.275,75.638,108.572,63.964,127.999z"/>
			</g>
		</g>
		<g id="Large_Shadow_2_" opacity="0.051">
			<g id="XMLID_264_">
				<path id="XMLID_265_" fill-rule="evenodd" clip-rule="evenodd" d="M117.04,28.175C70.481,30.522,30.1,56.286,7.426,93.924
					C18.168,114.189,39.466,128,64,128c35.346,0,64-28.654,64-64C128,50.727,123.959,38.398,117.04,28.175z"/>
			</g>
		</g>
		<g id="Shadow_2_">
			<g id="XMLID_257_">
				<path id="XMLID_258_" fill-rule="evenodd" clip-rule="evenodd" fill="#00ACFF" d="M71.397,127.561
					c18.722-2.156,34.978-12.384,45.207-27.122C97.882,102.595,81.626,112.823,71.397,127.561z"/>
			</g>
		</g>
		<g id="Highlight_2_" opacity="0.149">
			<g id="XMLID_249_">
				<path id="XMLID_251_" fill-rule="evenodd" clip-rule="evenodd" fill="#FFFFFF" d="M71.397,127.561
					c3.033-0.349,6.003-0.901,8.891-1.659c7.892-9.047,18.541-15.617,30.643-18.405c2.052-2.213,3.947-4.571,5.673-7.058
					C97.882,102.595,81.626,112.823,71.397,127.561z"/>
			</g>
		</g>
		<g id="Symbol_Shadow_2_" opacity="0.051">
			<g id="XMLID_415_">
				<path id="XMLID_416_" fill-rule="evenodd" clip-rule="evenodd" d="M47.703,74.947c0,8.494-2.333,10.674-7.249,10.674
					c-4.274,0-7.362-0.695-7.362-10.502v-0.025h-9.078v1.611c0,11.403,5.296,17.282,16.567,17.282
					c-0.035,0,16.065,0.37,16.065-17.456V39.134h-8.942V74.947z M85.678,61.074c-8.495-2.111-12.147-3.619-12.147-8.52
					c0-4.373,3.577-7.163,9.315-7.163c6.856,0,10.656,3.468,10.656,10.254h9.017c0-11.535-6.632-17.642-19.524-17.642
					c-11.253,0-18.63,6.258-18.63,15.381c0,11.234,8.346,13.722,18.406,16.285c8.123,2.036,11.998,3.242,11.998,8.67
					c0,5.052-3.875,8.143-10.507,8.143c-7.377,0-11.551-3.694-11.551-11.385h-9.166c0,12.289,7.825,18.849,20.642,18.849
					c11.923,0,19.822-6.484,19.822-16.436C104.01,66.201,95.664,63.562,85.678,61.074z"/>
			</g>
		</g>
		<g id="Symbol_2_">
			<g id="XMLID_422_">
				<path id="XMLID_423_" fill-rule="evenodd" clip-rule="evenodd" fill="#FFFFFF" d="M47.703,72.947
					c0,8.494-2.333,10.674-7.249,10.674c-4.274,0-7.362-0.695-7.362-10.502v-0.025h-9.078v1.611
					c0,11.403,5.296,17.282,16.567,17.282c-0.035,0,16.065,0.37,16.065-17.456V37.134h-8.942V72.947z M85.678,59.074
					c-8.495-2.111-12.147-3.619-12.147-8.52c0-4.373,3.577-7.163,9.315-7.163c6.856,0,10.656,3.468,10.656,10.254h9.017
					c0-11.535-6.632-17.642-19.524-17.642c-11.253,0-18.63,6.258-18.63,15.381c0,11.234,8.346,13.722,18.406,16.285
					c8.123,2.036,11.998,3.242,11.998,8.67c0,5.051-3.875,8.143-10.507,8.143c-7.377,0-11.551-3.694-11.551-11.385h-9.166
					c0,12.289,7.825,18.849,20.642,18.849c11.923,0,19.822-6.484,19.822-16.436C104.01,64.201,95.664,61.562,85.678,59.074z"/>
			</g>
		</g>
	</g>
</g>
</svg>
