<?xml version="1.0" encoding="utf-8"?>
<!-- Generator: Adobe Illustrator 18.1.1, SVG Export Plug-In . SVG Version: 6.00 Build 0)  -->
<svg version="1.1" xmlns="http://www.w3.org/2000/svg" xmlns:xlink="http://www.w3.org/1999/xlink" x="0px" y="0px"
	 viewBox="0 0 128 128" enable-background="new 0 0 128 128" xml:space="preserve">
<g id="Node">
	<g id="XMLID_487_">
		<g id="Color_Base_3_">
			<g id="XMLID_483_">
				<circle id="XMLID_486_" fill-rule="evenodd" clip-rule="evenodd" fill="#00ACFF" cx="64" cy="64" r="64"/>
			</g>
		</g>
		<g id="Border_3_" opacity="0.102">
			<g id="XMLID_542_">
				<path id="XMLID_543_" fill-rule="evenodd" clip-rule="evenodd" d="M64,0C28.654,0,0,28.654,0,64s28.654,64,64,64
					s64-28.654,64-64S99.346,0,64,0z M64,122C31.967,122,6,96.032,6,64C6,31.967,31.967,6,64,6s58,25.967,58,58
					C122,96.032,96.033,122,64,122z"/>
			</g>
		</g>
		<g id="Corner_Hightlight_3_" opacity="0.2588">
			<g id="XMLID_482_">
				<path id="XMLID_488_" fill-rule="evenodd" clip-rule="evenodd" fill="#FFFFFF" d="M63.964,127.999
					c0.012,0,0.024,0.001,0.036,0.001c2.503,0,4.968-0.159,7.397-0.439c10.229-14.739,26.485-24.966,45.207-27.122
					c1.412-2.035,2.713-4.152,3.886-6.35C96.468,95.275,75.638,108.572,63.964,127.999z"/>
			</g>
		</g>
		<g id="Large_Shadow_3_" opacity="0.051">
			<g id="XMLID_489_">
				<path id="XMLID_490_" fill-rule="evenodd" clip-rule="evenodd" d="M117.04,28.175C70.481,30.522,30.1,56.286,7.426,93.924
					C18.168,114.189,39.466,128,64,128c35.346,0,64-28.654,64-64C128,50.727,123.958,38.398,117.04,28.175z"/>
			</g>
		</g>
		<g id="Shadow_3_">
			<g id="XMLID_491_">
				<path id="XMLID_492_" fill-rule="evenodd" clip-rule="evenodd" fill="#FFCD34" d="M71.397,127.561
					c18.722-2.156,34.978-12.384,45.207-27.122C97.882,102.595,81.626,112.823,71.397,127.561z"/>
			</g>
		</g>
		<g id="Highlight_3_" opacity="0.149">
			<g id="XMLID_493_">
				<path id="XMLID_494_" fill-rule="evenodd" clip-rule="evenodd" fill="#FFFFFF" d="M71.397,127.561
					c3.033-0.349,6.003-0.901,8.891-1.659c7.892-9.047,18.541-15.617,30.643-18.405c2.052-2.213,3.947-4.571,5.673-7.058
					C97.882,102.595,81.626,112.823,71.397,127.561z"/>
			</g>
		</g>
		<g id="Symbol_Shadow_3_" opacity="0.051">
			<g id="XMLID_529_">
				<path id="XMLID_533_" fill-rule="evenodd" clip-rule="evenodd" d="M94.464,46.876L65.512,30.383
					c-0.937-0.534-2.087-0.534-3.024,0L33.536,46.876C32.586,47.417,32,48.423,32,49.514v32.932c0,1.09,0.586,2.097,1.536,2.638
					l28.937,16.484c0.945,0.539,2.107,0.533,3.048-0.013l14.708-8.789c1.001-0.582,1.01-2.021,0.016-2.615L53.456,74.46
					c-0.918-0.549-1.48-1.538-1.48-2.605V60.068c0-1.048,0.541-2.021,1.432-2.576l8.976-5.03c0.988-0.616,2.242-0.616,3.231,0
					l8.976,5.03c0.891,0.555,1.432,1.529,1.432,2.576v7.75c0,1.189,1.307,1.917,2.322,1.294l16.203-9.838
					c0.901-0.553,1.45-1.532,1.45-2.587v-7.173C96,48.423,95.414,47.417,94.464,46.876z M64.795,60.204
					c-0.487-0.273-1.104-0.273-1.59,0l-4.501,2.526c-0.439,0.246-0.705,0.678-0.705,1.143v5.244c0,0.464,0.266,0.896,0.705,1.143
					l4.501,2.527c0.487,0.273,1.104,0.273,1.59,0l4.501-2.527c0.439-0.246,0.705-0.678,0.705-1.143v-5.244
					c0-0.464-0.266-0.896-0.705-1.143L64.795,60.204z"/>
			</g>
		</g>
		<g id="Symbol_3_">
			<g id="XMLID_536_">
				<path id="XMLID_540_" fill-rule="evenodd" clip-rule="evenodd" fill="#FFFFFF" d="M94.464,44.876L65.512,28.383
					c-0.937-0.534-2.087-0.534-3.024,0L33.536,44.876C32.586,45.417,32,46.423,32,47.514v32.932c0,1.09,0.586,2.097,1.536,2.638
					l28.937,16.484c0.945,0.539,2.107,0.533,3.048-0.014l14.708-8.789c1.001-0.582,1.01-2.02,0.016-2.615L53.456,72.46
					c-0.918-0.549-1.48-1.538-1.48-2.605V58.068c0-1.048,0.541-2.021,1.432-2.576l8.976-5.03c0.988-0.616,2.242-0.616,3.231,0
					l8.976,5.03c0.891,0.555,1.432,1.529,1.432,2.576v7.75c0,1.189,1.307,1.917,2.322,1.294l16.203-9.838
					c0.901-0.553,1.45-1.532,1.45-2.587v-7.173C96,46.423,95.414,45.417,94.464,44.876z M64.795,58.204
					c-0.487-0.273-1.104-0.273-1.59,0l-4.501,2.527c-0.439,0.246-0.705,0.678-0.705,1.143v5.244c0,0.464,0.266,0.896,0.705,1.143
					l4.501,2.526c0.487,0.273,1.104,0.273,1.59,0l4.501-2.526c0.439-0.246,0.705-0.678,0.705-1.143v-5.244
					c0-0.464-0.266-0.896-0.705-1.143L64.795,58.204z"/>
			</g>
		</g>
	</g>
</g>
</svg>
