<?xml version="1.0" encoding="utf-8"?>
<!-- Generator: Adobe Illustrator 18.1.1, SVG Export Plug-In . SVG Version: 6.00 Build 0)  -->
<svg version="1.1" xmlns="http://www.w3.org/2000/svg" xmlns:xlink="http://www.w3.org/1999/xlink" x="0px" y="0px"
	 viewBox="0 0 128 128" enable-background="new 0 0 128 128" xml:space="preserve">
<g id="PHP">
	<g id="XMLID_1300_">
		<g id="Color_Base_10_">
			<g id="XMLID_1360_">
				<circle id="XMLID_1361_" fill-rule="evenodd" clip-rule="evenodd" fill="#00ACFF" cx="64" cy="64" r="64"/>
			</g>
		</g>
		<g id="Border_10_" opacity="0.102">
			<g id="XMLID_1445_">
				<path id="XMLID_1465_" fill-rule="evenodd" clip-rule="evenodd" d="M64,0C28.654,0,0,28.654,0,64s28.654,64,64,64
					c35.346,0,64-28.654,64-64S99.346,0,64,0z M64,122C31.967,122,6,96.032,6,64C6,31.967,31.967,6,64,6s58,25.967,58,58
					C122,96.032,96.033,122,64,122z"/>
			</g>
		</g>
		<g id="Corner_Hightlight_10_" opacity="0.2588">
			<g id="XMLID_1350_">
				<path id="XMLID_1356_" fill-rule="evenodd" clip-rule="evenodd" fill="#FFFFFF" d="M63.964,127.999
					c0.012,0,0.024,0.001,0.036,0.001c2.503,0,4.968-0.159,7.397-0.439c10.229-14.739,26.485-24.967,45.207-27.122
					c1.412-2.035,2.713-4.153,3.886-6.35C96.468,95.275,75.638,108.572,63.964,127.999z"/>
			</g>
		</g>
		<g id="Large_Shadow_10_" opacity="0.051">
			<g id="XMLID_1351_">
				<path id="XMLID_1352_" fill-rule="evenodd" clip-rule="evenodd" d="M117.04,28.175C70.481,30.522,30.1,56.286,7.426,93.924
					C18.168,114.189,39.466,128,64,128c35.346,0,64-28.654,64-64C128,50.727,123.958,38.398,117.04,28.175z"/>
			</g>
		</g>
		<g id="Shadow_10_">
			<g id="XMLID_1354_">
				<path id="XMLID_1355_" fill-rule="evenodd" clip-rule="evenodd" fill="#5C73CC" d="M71.397,127.561
					c18.722-2.156,34.978-12.384,45.207-27.122C97.882,102.595,81.626,112.823,71.397,127.561z"/>
			</g>
		</g>
		<g id="Highlight_10_" opacity="0.149">
			<g id="XMLID_1357_">
				<path id="XMLID_1359_" fill-rule="evenodd" clip-rule="evenodd" fill="#FFFFFF" d="M71.397,127.561
					c3.033-0.349,6.003-0.901,8.891-1.659c7.892-9.047,18.541-15.617,30.643-18.405c2.052-2.213,3.947-4.572,5.673-7.058
					C97.882,102.595,81.626,112.823,71.397,127.561z"/>
			</g>
		</g>
		<g id="Symbol_Shadow_10_" opacity="0.051">
			<g id="XMLID_1686_">
				<path id="XMLID_1688_" fill-rule="evenodd" clip-rule="evenodd" d="M102.086,59.873c-1.269-1.969-2.932-3.571-4.807-4.969
					c-3.061-2.281-6.47-3.913-10.063-5.187c-6.866-2.435-13.982-3.501-21.248-3.69c-4.716-0.122-9.408,0.167-14.068,0.909
					c-4.121,0.656-8.152,1.646-12.052,3.126c-3.318,1.26-6.47,2.828-9.3,4.976c-1.913,1.453-3.6,3.118-4.844,5.181
					c-1.423,2.361-2.028,4.889-1.532,7.626c0.368,2.028,1.289,3.806,2.554,5.424c1.551,1.985,3.469,3.57,5.582,4.935
					c3.621,2.338,7.578,3.937,11.714,5.127c6.524,1.878,13.201,2.662,19.983,2.669c3.494,0.01,6.971-0.22,10.433-0.685
					c3.948-0.53,7.826-1.367,11.606-2.619c3.707-1.228,7.247-2.802,10.458-5.033c2.207-1.533,4.166-3.315,5.62-5.587
					c1.057-1.651,1.729-3.436,1.856-5.398C104.137,64.198,103.423,61.948,102.086,59.873z M50.889,71.19
					c-1.283,0.749-2.723,1.029-4.189,1.086c-1.799,0.07-3.602,0.057-5.403,0.066c-0.249,0.001-0.354,0.049-0.405,0.316
					c-0.323,1.717-0.674,3.428-1.003,5.144c-0.042,0.222-0.111,0.303-0.353,0.301c-1.396-0.013-2.791-0.006-4.187-0.007
					c-0.092,0-0.184-0.008-0.299-0.014c1.421-7.215,2.839-14.41,4.262-21.636c0.131,0,0.224,0,0.317,0
					c2.989,0,5.979-0.005,8.968,0.003c1.225,0.003,2.435,0.136,3.587,0.575c2.372,0.904,3.651,2.645,3.708,5.128
					C55.981,66.082,54.366,69.162,50.889,71.19z M71.457,72.33c-1.595,0-3.183,0-4.804,0c0.145-0.737,0.285-1.45,0.425-2.164
					c0.499-2.541,1.007-5.08,1.487-7.624c0.079-0.417,0.071-0.859,0.042-1.285c-0.035-0.517-0.333-0.892-0.837-1.047
					c-0.384-0.118-0.788-0.229-1.186-0.237c-1.447-0.032-2.895-0.021-4.343-0.024c-0.03,0-0.06,0.012-0.118,0.025
					c-0.191,0.967-0.385,1.942-0.577,2.917c-0.606,3.075-1.211,6.15-1.813,9.225c-0.029,0.147-0.064,0.238-0.249,0.237
					c-1.458-0.007-2.916-0.004-4.374-0.005c-0.04,0-0.08-0.013-0.157-0.027c0.124-0.64,0.245-1.273,0.37-1.906
					c1.223-6.21,2.446-12.419,3.669-18.629c0.06-0.302,0.111-0.607,0.188-0.905c0.018-0.072,0.123-0.173,0.188-0.174
					c1.509-0.01,3.018-0.008,4.581-0.008c-0.38,1.933-0.751,3.824-1.129,5.749c0.152,0,0.265-0.001,0.377,0
					c1.749,0.017,3.499,0.011,5.248,0.062c1.033,0.03,2.047,0.224,3.006,0.632c1.402,0.596,2.076,1.676,2.162,3.152
					c0.055,0.934-0.133,1.84-0.313,2.748c-0.594,3.003-1.183,6.007-1.774,9.011C71.507,72.141,71.482,72.229,71.457,72.33z
					 M87.808,71.392c-1.261,0.621-2.629,0.857-4.021,0.899c-1.727,0.053-3.457,0.047-5.185,0.05
					c-0.255,0.001-0.352,0.061-0.401,0.32c-0.329,1.737-0.68,3.469-1.018,5.204c-0.029,0.15-0.062,0.237-0.247,0.236
					c-1.479-0.007-2.958-0.004-4.437-0.006c-0.04,0-0.08-0.015-0.137-0.026c1.419-7.203,2.837-14.399,4.26-21.623
					c0.117,0,0.219,0,0.321,0c2.989,0,5.979-0.003,8.968,0.002c1.013,0.002,2.016,0.108,2.995,0.381
					c2.555,0.714,4.083,2.451,4.274,5.082C93.482,66.084,91.29,69.678,87.808,71.392z M49.032,60.147
					c-0.548-0.142-1.124-0.23-1.69-0.249c-1.206-0.041-2.414-0.015-3.621-0.033c-0.255-0.004-0.327,0.086-0.372,0.322
					c-0.439,2.278-0.893,4.553-1.342,6.829c-0.123,0.621-0.241,1.244-0.361,1.865c0.06,0.022,0.088,0.042,0.116,0.041
					c1.579-0.024,3.164,0.112,4.736-0.144c1.414-0.23,2.627-0.798,3.371-2.078c0.77-1.325,1.101-2.767,1.034-4.285
					C50.848,61.172,50.256,60.464,49.032,60.147z M86.311,60.139c-0.539-0.139-1.104-0.223-1.66-0.242
					c-1.217-0.04-2.435-0.016-3.653-0.033c-0.232-0.003-0.294,0.087-0.334,0.293c-0.422,2.177-0.855,4.352-1.284,6.527
					c-0.144,0.733-0.285,1.466-0.435,2.243c0.231,0,0.426,0.006,0.62-0.001c1.423-0.049,2.854-0.025,4.267-0.172
					c1.436-0.149,2.64-0.807,3.377-2.106c0.734-1.294,1.057-2.698,1.008-4.172C88.174,61.184,87.581,60.466,86.311,60.139z"/>
			</g>
		</g>
		<g id="Symbol_10_">
			<g id="XMLID_2019_">
				<path id="XMLID_2020_" fill-rule="evenodd" clip-rule="evenodd" fill="#FFFFFF" d="M102.086,57.873
					c-1.269-1.969-2.932-3.571-4.807-4.969c-3.061-2.281-6.47-3.913-10.063-5.187c-6.866-2.435-13.982-3.501-21.248-3.69
					c-4.716-0.122-9.408,0.167-14.068,0.909c-4.121,0.656-8.152,1.646-12.052,3.126c-3.318,1.26-6.47,2.828-9.3,4.976
					c-1.913,1.453-3.6,3.118-4.844,5.181c-1.423,2.361-2.028,4.889-1.532,7.626c0.368,2.028,1.289,3.806,2.554,5.424
					c1.551,1.985,3.469,3.57,5.582,4.935c3.621,2.338,7.578,3.937,11.714,5.127c6.524,1.878,13.201,2.662,19.983,2.669
					c3.494,0.01,6.971-0.221,10.433-0.685c3.948-0.53,7.826-1.367,11.606-2.619c3.707-1.228,7.247-2.802,10.458-5.032
					c2.207-1.533,4.166-3.315,5.62-5.587c1.057-1.652,1.729-3.436,1.856-5.398C104.137,62.198,103.423,59.948,102.086,57.873z
					 M50.889,69.19c-1.283,0.748-2.723,1.029-4.189,1.086c-1.799,0.07-3.602,0.057-5.403,0.066
					c-0.249,0.001-0.354,0.049-0.405,0.316c-0.323,1.717-0.674,3.428-1.003,5.144c-0.042,0.222-0.111,0.303-0.353,0.301
					c-1.396-0.013-2.791-0.006-4.187-0.007c-0.092,0-0.184-0.008-0.299-0.014c1.421-7.215,2.839-14.41,4.262-21.636
					c0.131,0,0.224,0,0.317,0c2.989,0,5.979-0.005,8.968,0.003c1.225,0.003,2.435,0.136,3.587,0.575
					c2.372,0.904,3.651,2.645,3.708,5.128C55.981,64.082,54.366,67.162,50.889,69.19z M71.457,70.33c-1.595,0-3.183,0-4.804,0
					c0.145-0.737,0.285-1.451,0.425-2.164c0.499-2.541,1.007-5.08,1.487-7.624c0.079-0.417,0.071-0.859,0.042-1.285
					c-0.035-0.516-0.333-0.892-0.837-1.047c-0.384-0.118-0.788-0.229-1.186-0.237c-1.447-0.032-2.895-0.021-4.343-0.024
					c-0.03,0-0.06,0.012-0.118,0.025c-0.191,0.967-0.385,1.942-0.577,2.917c-0.606,3.075-1.211,6.15-1.813,9.225
					c-0.029,0.147-0.064,0.237-0.249,0.237c-1.458-0.007-2.916-0.004-4.374-0.006c-0.04,0-0.08-0.013-0.157-0.027
					c0.124-0.64,0.245-1.273,0.37-1.906c1.223-6.21,2.446-12.419,3.669-18.629c0.06-0.302,0.111-0.607,0.188-0.905
					c0.018-0.071,0.123-0.173,0.188-0.174c1.509-0.01,3.018-0.008,4.581-0.008c-0.38,1.933-0.751,3.824-1.129,5.749
					c0.152,0,0.265-0.001,0.377,0c1.749,0.017,3.499,0.011,5.248,0.062c1.033,0.03,2.047,0.224,3.006,0.632
					c1.402,0.596,2.076,1.676,2.162,3.152c0.055,0.934-0.133,1.84-0.313,2.748c-0.594,3.003-1.183,6.007-1.774,9.011
					C71.507,70.141,71.482,70.229,71.457,70.33z M87.808,69.392c-1.261,0.621-2.629,0.857-4.021,0.899
					c-1.727,0.053-3.457,0.047-5.185,0.05c-0.255,0-0.352,0.061-0.401,0.32c-0.329,1.737-0.68,3.469-1.018,5.204
					c-0.029,0.15-0.062,0.237-0.247,0.236c-1.479-0.007-2.958-0.004-4.437-0.006c-0.04,0-0.08-0.015-0.137-0.026
					c1.419-7.203,2.837-14.399,4.26-21.623c0.117,0,0.219,0,0.321,0c2.989,0,5.979-0.003,8.968,0.002
					c1.013,0.002,2.016,0.108,2.995,0.381c2.555,0.714,4.083,2.451,4.274,5.082C93.482,64.084,91.29,67.678,87.808,69.392z
					 M49.032,58.147c-0.548-0.142-1.124-0.23-1.69-0.249c-1.206-0.041-2.414-0.015-3.621-0.033
					c-0.255-0.004-0.327,0.086-0.372,0.322c-0.439,2.278-0.893,4.553-1.342,6.829c-0.123,0.621-0.241,1.244-0.361,1.865
					c0.06,0.022,0.088,0.042,0.116,0.041c1.579-0.024,3.164,0.112,4.736-0.144c1.414-0.23,2.627-0.798,3.371-2.079
					c0.77-1.325,1.101-2.767,1.034-4.285C50.848,59.172,50.256,58.464,49.032,58.147z M86.311,58.139
					c-0.539-0.139-1.104-0.223-1.66-0.242c-1.217-0.04-2.435-0.016-3.653-0.033c-0.232-0.003-0.294,0.087-0.334,0.293
					c-0.422,2.177-0.855,4.352-1.284,6.527c-0.144,0.733-0.285,1.466-0.435,2.243c0.231,0,0.426,0.006,0.62-0.001
					c1.423-0.049,2.854-0.025,4.267-0.172c1.436-0.149,2.64-0.807,3.377-2.106c0.734-1.294,1.057-2.698,1.008-4.172
					C88.174,59.184,87.581,58.466,86.311,58.139z"/>
			</g>
		</g>
	</g>
</g>
</svg>
