<?xml version="1.0" encoding="utf-8"?>
<!-- Generator: Adobe Illustrator 18.1.1, SVG Export Plug-In . SVG Version: 6.00 Build 0)  -->
<svg version="1.1" xmlns="http://www.w3.org/2000/svg" xmlns:xlink="http://www.w3.org/1999/xlink" x="0px" y="0px"
	 viewBox="0 0 128 128" enable-background="new 0 0 128 128" xml:space="preserve">
<g id="Python">
	<g id="XMLID_2_">
		<g id="Color_Base">
			<g id="XMLID_49_">
				<circle id="XMLID_52_" fill-rule="evenodd" clip-rule="evenodd" fill="#3ACA90" cx="64" cy="64" r="64"/>
			</g>
		</g>
		<g id="Border" opacity="0.102">
			<g id="XMLID_84_">
				<path id="XMLID_85_" fill-rule="evenodd" clip-rule="evenodd" d="M64,0C28.654,0,0,28.654,0,64s28.654,64,64,64
					c35.346,0,64-28.654,64-64S99.346,0,64,0z M64,122C31.968,122,6,96.032,6,64C6,31.967,31.968,6,64,6c32.033,0,58,25.967,58,58
					C122,96.032,96.033,122,64,122z"/>
			</g>
		</g>
		<g id="Corner_Hightlight" opacity="0.2588">
			<g id="XMLID_59_">
				<path id="XMLID_60_" fill-rule="evenodd" clip-rule="evenodd" fill="#FFFFFF" d="M63.964,127.999
					c0.012,0,0.024,0.001,0.036,0.001c2.503,0,4.968-0.159,7.397-0.439c10.229-14.739,26.485-24.966,45.207-27.122
					c1.412-2.035,2.713-4.152,3.886-6.35C96.468,95.275,75.638,108.572,63.964,127.999z"/>
			</g>
		</g>
		<g id="Large_Shadow" opacity="0.051">
			<g id="XMLID_61_">
				<path id="XMLID_62_" fill-rule="evenodd" clip-rule="evenodd" d="M117.04,28.175C70.481,30.522,30.1,56.286,7.426,93.924
					C18.168,114.189,39.466,128,64,128c35.346,0,64-28.654,64-64C128,50.727,123.958,38.398,117.04,28.175z"/>
			</g>
		</g>
		<g id="Shadow">
			<g id="XMLID_63_">
				<path id="XMLID_70_" fill-rule="evenodd" clip-rule="evenodd" fill="#5C73CC" d="M71.397,127.561
					c18.722-2.156,34.978-12.384,45.207-27.122C97.882,102.595,81.626,112.823,71.397,127.561z"/>
			</g>
		</g>
		<g id="Highlight" opacity="0.149">
			<g id="XMLID_64_">
				<path id="XMLID_65_" fill-rule="evenodd" clip-rule="evenodd" fill="#FFFFFF" d="M71.397,127.561
					c3.033-0.349,6.003-0.901,8.891-1.659c7.892-9.047,18.541-15.617,30.643-18.405c2.052-2.213,3.947-4.571,5.673-7.058
					C97.882,102.595,81.626,112.823,71.397,127.561z"/>
			</g>
		</g>
		<g id="Symbol_Shadow" opacity="0.051">
			<g id="XMLID_135_">
				<path id="XMLID_136_" fill-rule="evenodd" clip-rule="evenodd" d="M96,44h-6v8c0,8.837-7.163,16-16,16H54
					c-6.627,0-12,5.373-12,12v8v2v8c0,4.418,9.85,8,22,8s22-3.582,22-8v-6H64v-4h22h10c4.418,0,8-9.85,8-22S100.418,44,96,44z
					 M77,94c1.657,0,3,1.343,3,3s-1.343,3-3,3s-3-1.343-3-3S75.343,94,77,94z M54,64h20c6.627,0,12-5.373,12-12v-8v-2v-8
					c0-4.418-9.85-8-22-8s-22,3.582-22,8v6h22v4H42H32c-4.418,0-8,9.85-8,22s3.582,22,8,22h6v-8C38,71.163,45.163,64,54,64z M51,38
					c-1.657,0-3-1.343-3-3s1.343-3,3-3s3,1.343,3,3S52.657,38,51,38z"/>
			</g>
		</g>
		<g id="Symbol">
			<g id="XMLID_143_">
				<path id="XMLID_148_" fill-rule="evenodd" clip-rule="evenodd" fill="#FFFFFF" d="M54,62h20c6.627,0,12-5.373,12-12v-8v-2v-8
					c0-4.418-9.85-8-22-8s-22,3.582-22,8v6h22v4H42H32c-4.418,0-8,9.85-8,22s3.582,22,8,22h6v-8C38,69.163,45.163,62,54,62z M51,36
					c-1.657,0-3-1.343-3-3s1.343-3,3-3s3,1.343,3,3S52.657,36,51,36z M96,42h-6v8c0,8.837-7.163,16-16,16H54
					c-6.627,0-12,5.373-12,12v8v2v8c0,4.418,9.85,8,22,8s22-3.582,22-8v-6H64v-4h22h10c4.418,0,8-9.85,8-22S100.418,42,96,42z
					 M77,92c1.657,0,3,1.343,3,3s-1.343,3-3,3s-3-1.343-3-3S75.343,92,77,92z"/>
			</g>
		</g>
	</g>
</g>
</svg>
